{
  "accessors": [
    {
      "bufferView": 2,
      "componentType": 5126,
      "count": 4008,
      "max": [
        0.021771999076008797,
        0.010854000225663185,
        0.02180900052189827
      ],
      "min": [
        -0.021720999851822853,
        -0.010867999866604805,
        -0.02181299962103367
      ],
      "type": "VEC3"
    },
    {
      "bufferView": 2,
      "byteOffset": 48096,
      "componentType": 5126,
      "count": 4008,
      "max": [
        0.9961867332458496,
        0.9820005893707275,
        0.9953106641769409
      ],
      "min": [
        -0.9990401268005371,
        -0.9983784556388855,
        -0.9960734844207764
      ],
      "type": "VEC3"
    },
    {
      "bufferView": 3,
      "componentType": 5126,
      "count": 4008,
      "max": [
        0.9963855743408203,
        0.9996029138565063,
        0.9998136758804321,
        1.0
      ],
      "min": [
        -0.9989113807678223,
        -0.880332350730896,
        -0.9967233538627625,
        -1.0
      ],
      "type": "VEC4"
    },
    {
      "bufferView": 1,
      "componentType": 5126,
      "count": 4008,
      "max": [
        0.5626980066299438,
        0.6427199840545654
      ],
      "min": [
        0.014375000260770321,
        0.0019529999699443579
      ],
      "type": "VEC2"
    },
    {
      "bufferView": 0,
      "componentType": 5125,
      "count": 21918,
      "type": "SCALAR"
    },
    {
      "bufferView": 2,
      "byteOffset": 96192,
      "componentType": 5126,
      "count": 512,
      "max": [
        0.060694001615047455,
        0.06069200113415718,
        0.12249399721622467
      ],
      "min": [
        -0.06069499999284744,
        -0.06069700047373772,
        -0.08447500318288803
      ],
      "type": "VEC3"
    },
    {
      "bufferView": 2,
      "byteOffset": 102336,
      "componentType": 5126,
      "count": 512,
      "max": [
        0.999987781047821,
        0.9999871253967285,
        0.6786619424819946
      ],
      "min": [
        -0.9999991059303284,
        -0.9999769926071167,
        -1.0
      ],
      "type": "VEC3"
    },
    {
      "bufferView": 3,
      "byteOffset": 64128,
      "componentType": 5126,
      "count": 512,
      "max": [
        0.6615232229232788,
        0.9993698596954346,
        0.9999873042106628,
        1.0
      ],
      "min": [
        -0.9999908804893494,
        -0.9790892004966736,
        -0.999896764755249,
        1.0
      ],
      "type": "VEC4"
    },
    {
      "bufferView": 1,
      "byteOffset": 32064,
      "componentType": 5126,
      "count": 512,
      "max": [
        0.9304109811782837,
        0.9980469942092896
      ],
      "min": [
        0.03567900136113167,
        0.002124000107869506
      ],
      "type": "VEC2"
    },
    {
      "bufferView": 0,
      "byteOffset": 87672,
      "componentType": 5125,
      "count": 2592,
      "type": "SCALAR"
    },
    {
      "bufferView": 2,
      "byteOffset": 108480,
      "componentType": 5126,
      "count": 1103,
      "max": [
        0.7607579827308655,
        0.16821099817752838,
        0.6997039914131165
      ],
      "min": [
        0.34963899850845337,
        -0.16821099817752838,
        0.5043259859085083
      ],
      "type": "VEC3"
    },
    {
      "bufferView": 2,
      "byteOffset": 121716,
      "componentType": 5126,
      "count": 1103,
      "max": [
        1.0,
        1.0,
        1.0
      ],
      "min": [
        -1.0,
        -1.0,
        -1.0
      ],
      "type": "VEC3"
    },
    {
      "bufferView": 3,
      "byteOffset": 72320,
      "componentType": 5126,
      "count": 1103,
      "max": [
        1.0,
        0.997636079788208,
        1.0,
        1.0
      ],
      "min": [
        -1.0,
        -0.997636079788208,
        -1.0,
        1.0
      ],
      "type": "VEC4"
    },
    {
      "bufferView": 1,
      "byteOffset": 36160,
      "componentType": 5126,
      "count": 1103,
      "max": [
        0.656112015247345,
        0.9434670209884644
      ],
      "min": [
        0.0019529999699443579,
        0.0019529999699443579
      ],
      "type": "VEC2"
    },
    {
      "bufferView": 0,
      "byteOffset": 98040,
      "componentType": 5125,
      "count": 3720,
      "type": "SCALAR"
    },
    {
      "bufferView": 2,
      "byteOffset": 134952,
      "componentType": 5126,
      "count": 2952,
      "max": [
        0.16993999481201172,
        0.16261999309062958,
        0.6865310072898865
      ],
      "min": [
        -0.15529899299144745,
        -0.16261999309062958,
        0.005714000202715397
      ],
      "type": "VEC3"
    },
    {
      "bufferView": 2,
      "byteOffset": 170376,
      "componentType": 5126,
      "count": 2952,
      "max": [
        1.0,
        1.0,
        1.0
      ],
      "min": [
        -1.0,
        -1.0,
        -0.9877924919128418
      ],
      "type": "VEC3"
    },
    {
      "bufferView": 3,
      "byteOffset": 89968,
      "componentType": 5126,
      "count": 2952,
      "max": [
        1.0,
        0.9999995827674866,
        1.0,
        1.0
      ],
      "min": [
        -0.9999309778213501,
        -1.0,
        -0.9999874234199524,
        1.0
      ],
      "type": "VEC4"
    },
    {
      "bufferView": 1,
      "byteOffset": 44984,
      "componentType": 5126,
      "count": 2952,
      "max": [
        0.9422889947891235,
        0.9905679821968079
      ],
      "min": [
        0.0019529999699443579,
        0.0019529999699443579
      ],
      "type": "VEC2"
    },
    {
      "bufferView": 0,
      "byteOffset": 112920,
      "componentType": 5125,
      "count": 13632,
      "type": "SCALAR"
    }
  ],
  "asset": {
    "extras": {
      "author": "Sousinho (https://sketchfab.com/sousinho)",
      "license": "CC-BY-4.0 (http://creativecommons.org/licenses/by/4.0/)",
      "source": "https://sketchfab.com/3d-models/old-lamp-1ec5e59201094883b780a32ff4e61637",
      "title": "Old lamp"
    },
    "generator": "Sketchfab-14.1.2",
    "version": "2.0"
  },
  "bufferViews": [
    {
      "buffer": 0,
      "byteLength": 167448,
      "name": "floatBufferViews",
      "target": 34963
    },
    {
      "buffer": 0,
      "byteLength": 68600,
      "byteOffset": 167448,
      "byteStride": 8,
      "name": "floatBufferViews",
      "target": 34962
    },
    {
      "buffer": 0,
      "byteLength": 205800,
      "byteOffset": 236048,
      "byteStride": 12,
      "name": "floatBufferViews",
      "target": 34962
    },
    {
      "buffer": 0,
      "byteLength": 137200,
      "byteOffset": 441848,
      "byteStride": 16,
      "name": "floatBufferViews",
      "target": 34962
    }
  ],
  "buffers": [
    {
      "byteLength": 579048,
      "uri": "scene.bin"
    }
  ],
  "images": [
    {
      "uri": "textures/T_lamp_1001_baseColor.jpeg"
    },
    {
      "uri": "textures/T_lamp_1001_metallicRoughness.png"
    },
    {
      "uri": "textures/T_lamp_1001_emissive.jpeg"
    },
    {
      "uri": "textures/T_lamp_1001_normal.png"
    }
  ],
  "materials": [
    {
      "doubleSided": true,
      "emissiveFactor": [
        1.0,
        1.0,
        1.0
      ],
      "emissiveTexture": {
        "index": 2
      },
      "name": "T_lamp_1001",
      "normalTexture": {
        "index": 3
      },
      "occlusionTexture": {
        "index": 1
      },
      "pbrMetallicRoughness": {
        "baseColorTexture": {
          "index": 0
        },
        "metallicRoughnessTexture": {
          "index": 1
        }
      }
    }
  ],
  "meshes": [
    {
      "name": "defaultMaterial",
      "primitives": [
        {
          "attributes": {
            "NORMAL": 1,
            "POSITION": 0,
            "TANGENT": 2,
            "TEXCOORD_0": 3
          },
          "indices": 4,
          "material": 0,
          "mode": 4
        }
      ]
    },
    {
      "name": "defaultMaterial",
      "primitives": [
        {
          "attributes": {
            "NORMAL": 6,
            "POSITION": 5,
            "TANGENT": 7,
            "TEXCOORD_0": 8
          },
          "indices": 9,
          "material": 0,
          "mode": 4
        }
      ]
    },
    {
      "name": "defaultMaterial",
      "primitives": [
        {
          "attributes": {
            "NORMAL": 11,
            "POSITION": 10,
            "TANGENT": 12,
            "TEXCOORD_0": 13
          },
          "indices": 14,
          "material": 0,
          "mode": 4
        }
      ]
    },
    {
      "name": "defaultMaterial",
      "primitives": [
        {
          "attributes": {
            "NORMAL": 16,
            "POSITION": 15,
            "TANGENT": 17,
            "TEXCOORD_0": 18
          },
          "indices": 19,
          "material": 0,
          "mode": 4
        }
      ]
    }
  ],
  "nodes": [
    {
      "children": [
        1
      ],
      "matrix": [
        1.0,
        0.0,
        0.0,
        0.0,
        0.0,
        2.220446049250313e-16,
        -1.0,
        0.0,
        0.0,
        1.0,
        2.220446049250313e-16,
        0.0,
        0.0,
        0.0,
        0.0,
        1.0
      ],
      "name": "Sketchfab_model"
    },
    {
      "children": [
        2,
        4,
        6,
        8
      ],
      "matrix": [
        1.0,
        0.0,
        0.0,
        0.0,
        0.0,
        -4.371139006309477e-08,
        0.999999999999999,
        0.0,
        0.0,
        -0.999999999999999,
        -4.371139006309477e-08,
        0.0,
        0.0,
        0.0,
        0.0,
        1.0
      ],
      "name": "Collada visual scene group"
    },
    {
      "children": [
        3
      ],
      "matrix": [
        1.9e-05,
        -100.0,
        0.0,
        0.0,
        -100.0,
        -1.9e-05,
        -1.5e-05,
        0.0,
        1.5e-05,
        0.0,
        -100.0,
        0.0,
        23.325851,
        70.406624,
        0.028121,
        1.0
      ],
      "name": "Circle.001"
    },
    {
      "mesh": 0,
      "name": "defaultMaterial"
    },
    {
      "children": [
        5
      ],
      "matrix": [
        -3.302394,
        97.340919,
        -22.668074,
        0.0,
        -2.372217,
        -22.750393,
        -97.348816,
        0.0,
        -99.917297,
        -2.677106,
        3.060445,
        0.0,
        34.260757,
        70.729324,
        -0.286434,
        1.0
      ],
      "name": "Sphere"
    },
    {
      "mesh": 1,
      "name": "defaultMaterial"
    },
    {
      "children": [
        7
      ],
      "matrix": [
        93.969261,
        34.202019,
        -1e-06,
        0.0,
        4e-06,
        -1.6e-05,
        -100.0,
        0.0,
        -34.202019,
        93.969261,
        -1.6e-05,
        0.0,
        0.0,
        7e-06,
        0.0,
        1.0
      ],
      "name": "SM_light"
    },
    {
      "mesh": 2,
      "name": "defaultMaterial"
    },
    {
      "children": [
        9
      ],
      "matrix": [
        100.0,
        0.0,
        0.0,
        0.0,
        0.0,
        -1.6e-05,
        -100.0,
        0.0,
        0.0,
        100.0,
        -1.6e-05,
        0.0,
        0.0,
        -1e-06,
        0.0,
        1.0
      ],
      "name": "SM_base"
    },
    {
      "mesh": 3,
      "name": "defaultMaterial"
    }
  ],
  "samplers": [
    {
      "magFilter": 9729,
      "minFilter": 9987,
      "wrapS": 10497,
      "wrapT": 10497
    }
  ],
  "scene": 0,
  "scenes": [
    {
      "name": "Sketchfab_Scene",
      "nodes": [
        0
      ]
    }
  ],
  "textures": [
    {
      "sampler": 0,
      "source": 0
    },
    {
      "sampler": 0,
      "source": 1
    },
    {
      "sampler": 0,
      "source": 2
    },
    {
      "sampler": 0,
      "source": 3
    }
  ]
}
